HIERARCHY
ROOT Hips
{
	OFFSET 0.000000 0.000000 0.000000 
	CHANNELS 6 Xposition Yposition Zposition Zrotation Yrotation Xrotation
	JOINT LeftUpLeg
	{
		OFFSET 1.363060 -1.794630 0.839290 
		CHANNELS 3 Zrotation Yrotation Xrotation
		JOINT LeftLeg
		{
			OFFSET 2.448110 -6.726130 0.000000 
			CHANNELS 3 Zrotation Yrotation Xrotation
			JOINT LeftFoot
			{
				OFFSET 2.562200 -7.039590 0.000000 
				CHANNELS 3 Zrotation Yrotation Xrotation
				JOINT LeftToeBase
				{
					OFFSET 0.157640 -0.433110 2.322550 
					CHANNELS 3 Zrotation Yrotation Xrotation
					End Site
					{
						OFFSET 0.000000 0.000000 0.000000 
					}
				}
			}
		}
	}
	JOINT RightUpLeg
	{
		OFFSET -1.305520 -1.794630 0.839290 
		CHANNELS 3 Zrotation Yrotation Xrotation
		JOINT RightLeg
		{
			OFFSET -2.542530 -6.985550 0.000000 
			CHANNELS 3 Zrotation Yrotation Xrotation
			JOINT RightFoot
			{
				OFFSET -2.568260 -7.056230 0.000000 
				CHANNELS 3 Zrotation Yrotation Xrotation
				JOINT RightToeBase
				{
					OFFSET -0.164730 -0.452590 2.363150 
					CHANNELS 3 Zrotation Yrotation Xrotation
					End Site
					{
						OFFSET 0.000000 0.000000 0.000000 
					}
				}
			}
		}
	}
	JOINT Spine
	{
		OFFSET 0.028270 2.035590 -0.193380 
		CHANNELS 3 Zrotation Yrotation Xrotation
		JOINT Spine1
		{
			OFFSET 0.056720 2.048850 -0.042750 
			CHANNELS 3 Zrotation Yrotation Xrotation
			JOINT Neck1
			{
				OFFSET -0.054170 1.746240 0.172020 
				CHANNELS 3 Zrotation Yrotation Xrotation
				JOINT Head
				{
					OFFSET 0.104070 1.761360 -0.123970 
					CHANNELS 3 Zrotation Yrotation Xrotation
					End Site
					{
						OFFSET 0.000000 0.000000 0.000000 
					}
				}
			}
			JOINT LeftArm
			{
				OFFSET 3.362410 1.200890 -0.311210 
				CHANNELS 3 Zrotation Yrotation Xrotation
				JOINT LeftForeArm
				{
					OFFSET 4.983000 -0.000000 -0.000000 
					CHANNELS 3 Zrotation Yrotation Xrotation
					JOINT LeftHand
					{
						OFFSET 3.483560 -0.000000 -0.000000 
						CHANNELS 3 Zrotation Yrotation Xrotation
						JOINT LeftHandIndex1
						{
							OFFSET 0.715260 -0.000000 -0.000000 
							CHANNELS 3 Zrotation Yrotation Xrotation
							End Site
							{
								OFFSET 0.000000 0.000000 0.000000 
							}
						}
					}
				}
			}
			JOINT RightArm
			{
				OFFSET -3.136600 1.374050 -0.404650 
				CHANNELS 3 Zrotation Yrotation Xrotation
				JOINT RightForeArm
				{
					OFFSET -5.241900 -0.000000 -0.000000 
					CHANNELS 3 Zrotation Yrotation Xrotation
					JOINT RightHand
					{
						OFFSET -3.444170 -0.000000 -0.000000 
						CHANNELS 3 Zrotation Yrotation Xrotation
						JOINT RightHandIndex1
						{
							OFFSET -0.622530 -0.000000 -0.000000 
							CHANNELS 3 Zrotation Yrotation Xrotation
							End Site
							{
								OFFSET 0.000000 0.000000 0.000000 
							}
						}
					}
				}
			}
		}
	}
}
MOTION
Frames: 16
Frame Time: 0.041667
19.266595 17.358156 23.066479 173.590181 -12.210393 -166.687995 -10.468783 -5.665631 -14.189313 3.219508 11.272258 33.927213 3.660796 -12.538592 -12.226214 1.985300 -8.835300 -25.281400 -6.603487 24.229083 -48.744750 -8.961125 -14.770264 54.014293 0.016653 0.232070 -0.489907 -0.284700 -3.431300 9.481800 2.421790 -1.945472 5.701987 1.002234 -1.474851 -2.376488 -12.547256 8.252321 -9.625399 -4.510700 3.346500 0.846000 -88.574147 -14.002290 29.053464 29.064756 -33.449221 -10.766129 -0.442357 -1.432788 -6.714120 -7.125000 0.000000 0.000000 87.295247 -9.426884 10.586066 -15.620305 22.787616 -3.198204 0.706868 -1.372033 10.334056 7.125000 0.000000 0.000000 
19.275337 17.418565 23.096634 173.415131 -12.898933 -166.355819 -10.401598 -5.659651 -14.472360 3.076506 11.084332 33.327493 3.624138 -12.779122 -11.365506 1.999300 -8.864600 -25.372600 -6.546217 24.433034 -48.707156 -8.977340 -14.768658 54.005650 0.309529 -2.427357 -0.959497 -0.251900 -3.229600 8.918700 2.403237 -2.016336 5.551532 1.048719 -1.486653 -2.491967 -12.472618 7.968813 -9.787819 -4.501000 3.227200 0.711900 -88.562140 -13.339329 29.405116 29.192904 -33.600220 -10.889241 -0.440504 -1.449866 -7.040366 -7.125000 0.000000 0.000000 87.460746 -9.520888 11.232047 -15.961807 23.264927 -3.354055 0.728794 -1.322337 9.045450 7.125000 0.000000 0.000000 
19.274747 17.468464 23.127281 173.202856 -13.550397 -166.065218 -10.455503 -5.744734 -14.657035 2.911814 10.869045 32.654403 3.549846 -12.797926 -10.494530 2.028900 -8.926000 -25.564200 -6.703536 24.777167 -48.599594 -8.977057 -14.748994 53.926467 0.636408 -5.050735 -1.442604 -0.178500 -2.721300 7.503800 2.271383 -2.108009 5.446042 0.909085 -1.514364 -2.589350 -12.230476 7.737248 -9.743660 -4.423000 3.113200 0.705400 -88.522722 -12.634551 29.588884 29.411206 -33.839141 -11.064689 -0.444413 -1.481807 -7.283765 -7.125000 0.000000 0.000000 87.651251 -9.290164 11.866767 -16.185619 23.574876 -3.469179 0.730989 -1.251530 7.913480 7.125000 0.000000 0.000000 
19.265220 17.511880 23.169911 173.013044 -14.021915 -165.249710 -10.542730 -6.015539 -15.348569 2.755735 10.636208 32.006954 3.455703 -12.886553 -9.301384 1.739400 -8.300700 -23.631200 -7.284687 25.080273 -49.245456 -8.955877 -14.709318 53.776483 0.906016 -7.019735 -1.645606 -0.226900 -3.065800 8.462100 2.086991 -2.136942 5.302710 0.598652 -1.515037 -2.384663 -11.869163 7.509231 -9.536830 -4.273300 2.981900 0.801100 -88.403533 -12.404024 29.614128 29.395460 -33.837993 -11.064981 -0.434434 -1.474318 -7.549176 -7.125000 0.000000 0.000000 87.798629 -8.881526 12.551455 -16.384309 23.846179 -3.582283 0.724960 -1.143442 6.319642 7.125000 0.000000 0.000000 
19.284963 17.572191 23.180028 172.953470 -15.354165 -165.311873 -10.186199 -6.303198 -15.113225 2.594917 10.434273 31.325651 3.427287 -13.208008 -8.289631 1.618500 -8.021700 -22.780000 -7.046494 25.217537 -48.417102 -8.905512 -14.674772 53.538163 1.212407 -9.120996 -2.115289 -0.242800 -3.170900 8.755000 2.161481 -2.359273 5.305663 0.622157 -1.620032 -2.549195 -11.394215 7.205581 -9.493874 -4.573800 2.838500 0.816300 -88.350782 -12.243746 29.836327 29.148928 -33.608085 -10.911974 -0.410829 -1.457875 -7.855443 -7.125000 0.000000 0.000000 87.918051 -8.924411 13.102392 -16.705811 24.290751 -3.741181 0.731687 -1.073270 4.693690 7.125000 0.000000 0.000000 
19.294982 17.616786 23.203406 173.165337 -16.404359 -165.246147 -9.709459 -6.411439 -15.195488 2.448990 10.265575 30.719525 3.372498 -12.850808 -8.000892 1.996500 -8.858900 -25.354900 -6.807214 25.465532 -48.064126 -8.844343 -14.610806 53.232835 1.479818 -10.842953 -1.977410 -0.187600 -2.789400 7.692900 2.110338 -2.274370 5.076982 0.215683 -1.539121 -2.985473 -11.186941 6.803844 -9.425075 -4.562800 2.661800 0.742900 -88.242505 -11.670375 30.510117 28.997824 -33.484071 -10.839155 -0.405533 -1.476713 -7.943119 -7.125000 0.000000 0.000000 88.313765 -9.182562 13.151854 -17.113171 24.849978 -3.934015 0.752598 -1.034135 4.068987 7.125000 0.000000 0.000000 
19.304510 17.653523 23.229534 173.343191 -17.365987 -165.165018 -9.291994 -6.504501 -15.268898 2.317646 10.101431 30.146436 3.349823 -12.788905 -7.585807 2.124300 -9.120300 -26.172500 -6.726347 25.733917 -47.715343 -8.777163 -14.542163 52.913891 1.670050 -12.028180 -1.670948 -0.198200 -2.866800 7.908200 2.020748 -2.205699 5.127309 -0.224333 -1.500270 -2.952513 -10.948328 6.379118 -9.358133 -4.521700 2.447100 0.753200 -88.095349 -11.442042 31.007385 28.871112 -33.357625 -10.730410 -0.468885 -1.511866 -7.861103 -7.125000 0.000000 0.000000 88.651648 -8.864753 13.193063 -17.457283 25.310274 -4.098399 0.772783 -1.002886 3.971631 7.125000 0.000000 0.000000 
19.310895 17.690652 23.254680 173.389047 -18.477309 -164.990731 -8.972298 -6.910346 -15.395892 2.229539 9.969371 29.744691 3.343829 -13.032305 -6.938477 1.835800 -8.515300 -24.290400 -6.855044 25.800435 -47.445699 -8.705149 -14.488734 52.612974 1.794089 -12.785812 -1.506354 -0.240400 -3.155400 8.711600 2.255745 -2.436105 5.270090 -0.157380 -1.621053 -2.715961 -10.897697 6.152157 -9.294481 -4.464600 2.299500 0.854700 -88.371825 -11.531791 30.845377 28.690748 -33.131347 -10.513378 -0.577599 -1.628324 -7.684393 -7.125000 0.000000 0.000000 88.255819 -8.399554 13.853683 -17.803222 25.758153 -4.250974 0.818021 -1.007849 3.777465 7.125000 0.000000 0.000000 
19.317378 17.721397 23.281791 173.628438 -19.667045 -164.838133 -8.460482 -7.367051 -15.643360 2.142543 9.846434 29.365126 3.308607 -13.027102 -6.330857 1.754400 -8.334500 -23.734900 -6.758259 25.731608 -47.324526 -8.654774 -14.452092 52.388652 1.906843 -13.484134 -1.230998 -0.225800 -3.058500 8.441800 2.569242 -2.611873 5.272424 -0.167050 -1.697145 -2.642856 -10.795264 5.872894 -9.378243 -4.388300 2.154900 0.801500 -88.632820 -11.500140 30.879749 28.424885 -32.838360 -10.285228 -0.613259 -1.734680 -7.633096 -7.125000 0.000000 0.000000 87.743428 -8.222604 14.707975 -18.246198 26.331779 -4.454084 0.874678 -0.995456 3.089168 7.125000 0.000000 0.000000 
19.331915 17.743891 23.302025 173.900785 -20.809884 -165.007443 -7.940550 -7.697542 -15.602057 2.058455 9.739106 28.995470 3.292707 -13.116237 -5.762933 1.730700 -8.281100 -23.571100 -6.493555 25.732983 -46.852775 -8.618609 -14.422430 52.203645 2.015975 -14.177907 -0.787453 -0.173700 -2.684800 7.402300 2.834600 -2.667967 5.267377 -0.207671 -1.711603 -2.814285 -10.576496 5.512638 -9.370216 -4.286000 1.988300 0.727100 -88.840120 -11.239537 31.021230 28.155742 -32.570360 -10.130291 -0.584343 -1.682195 -7.617364 -7.125000 0.000000 0.000000 87.331290 -8.199094 15.439714 -18.664527 26.878344 -4.660406 0.896952 -0.970624 2.377863 7.125000 0.000000 0.000000 
19.347337 17.764518 23.318036 173.691177 -21.813821 -164.971393 -7.897221 -8.073640 -15.466344 1.987035 9.622605 28.663258 3.286560 -13.371172 -5.186944 1.537300 -7.827300 -22.190600 -6.796518 25.522423 -46.476433 -8.575327 -14.418693 52.045155 2.043937 -14.391460 -0.464875 -0.189700 -2.804800 7.735700 2.945754 -2.700515 5.491905 -0.121263 -1.744783 -2.547279 -10.342465 5.119868 -9.277022 -4.171800 1.785700 0.755000 -89.029248 -11.367717 31.012175 27.921250 -32.318243 -9.980962 -0.579106 -1.613614 -7.597285 -7.125000 0.000000 0.000000 86.971169 -7.813801 15.865915 -18.980161 27.295338 -4.826580 0.866335 -0.968322 2.194191 7.125000 0.000000 0.000000 
19.359910 17.785048 23.341217 173.547196 -22.713573 -164.715207 -7.778706 -8.540358 -15.508625 1.907306 9.490821 28.291433 3.256550 -13.320358 -4.812906 1.490600 -7.712900 -21.845500 -7.250424 25.442713 -46.366032 -8.522858 -14.393915 51.831432 2.066606 -14.597361 0.055123 -0.153500 -2.524700 6.958100 3.023495 -2.637797 5.818200 -0.156282 -1.741180 -1.932156 -10.189742 4.693080 -9.378353 -4.111600 1.559200 0.731200 -89.114662 -11.994087 31.046504 27.513423 -31.861127 -9.678822 -0.596659 -1.576754 -7.328709 -7.125000 0.000000 0.000000 86.672213 -7.150859 15.981982 -19.310786 27.748254 -5.031283 0.757219 -0.929134 2.435480 7.125000 0.000000 0.000000 
19.374938 17.807247 23.361550 173.785748 -23.565177 -164.602475 -7.277592 -8.971960 -15.627893 1.826788 9.373849 27.918181 3.233556 -13.248563 -4.410437 1.514500 -7.771600 -22.022400 -7.540868 26.157430 -46.053258 -8.460505 -14.301315 51.544312 2.170638 -15.130168 -0.158652 -0.089100 -1.925400 5.299600 3.370235 -2.608869 5.887453 -0.030051 -1.726055 -1.797241 -10.077805 4.543534 -9.232402 -4.034700 1.472500 0.812300 -89.488493 -12.245405 30.879821 27.071485 -31.359365 -9.357265 -0.631580 -1.532728 -6.704423 -7.125000 0.000000 0.000000 85.981252 -6.786029 16.394143 -19.621723 28.167704 -5.219776 0.676438 -0.897351 2.742748 7.125000 0.000000 0.000000 
19.392423 17.820311 23.370587 173.884814 -24.353026 -164.607083 -6.919604 -9.261288 -15.644748 1.782953 9.304436 27.693898 3.261705 -13.554372 -4.041595 1.515200 -7.773300 -22.027700 -7.846030 26.660260 -45.603329 -8.407776 -14.235489 51.315471 2.212993 -15.336861 -0.188678 -0.067500 -1.676400 4.612200 3.706284 -2.625195 5.844012 0.242412 -1.727496 -1.919245 -9.925516 4.470416 -8.902895 -3.948800 1.435300 0.936400 -89.957572 -12.139882 30.610702 26.716740 -30.951414 -9.096133 -0.671962 -1.522304 -6.219698 -7.125000 0.000000 0.000000 85.203289 -6.631231 17.151854 -19.839337 28.433116 -5.316915 0.709571 -0.919721 2.307717 7.125000 0.000000 0.000000 
19.413836 17.817757 23.379526 173.839948 -25.050432 -164.748588 -6.724339 -9.471659 -15.543608 1.772788 9.283770 27.621442 3.303522 -13.893269 -3.896696 1.478100 -7.681800 -21.751700 -7.947860 26.214994 -45.258689 -8.344330 -14.234087 51.141646 2.056694 -14.481628 0.216248 -0.083600 -1.865000 5.132600 3.820357 -2.557179 5.924779 0.335554 -1.699701 -1.967262 -9.567715 4.192074 -8.711103 -3.806400 1.307000 0.977600 -90.219823 -12.106526 30.340937 26.375586 -30.564936 -8.852179 -0.692565 -1.498582 -6.003098 -7.125000 0.000000 0.000000 84.755980 -6.269648 17.561490 -20.005229 28.631421 -5.386639 0.740520 -0.946214 1.906596 7.125000 0.000000 0.000000 
19.443107 17.808425 23.392000 173.846950 -25.642234 -164.880819 -6.467629 -9.625022 -15.612081 1.785847 9.298332 27.671153 3.338744 -14.323366 -3.562052 1.142500 -6.787500 -19.087300 -8.123277 25.928739 -44.983233 -8.280657 -14.216777 50.952311 1.876930 -13.479647 0.801356 -0.040800 -1.303700 3.584900 3.913823 -2.391567 6.039358 0.419895 -1.626164 -1.986432 -9.049037 3.890502 -8.450730 -3.584900 1.167300 1.062000 -90.381809 -12.093786 30.055708 26.057824 -30.205965 -8.633857 -0.694644 -1.455367 -6.001043 -7.125000 0.000000 0.000000 84.351133 -5.758247 17.600499 -20.001282 28.629376 -5.379128 0.729437 -0.969486 2.223385 7.125000 0.000000 0.000000 
